<svg width="54" height="30" viewBox="0 0 54 30" fill="none" xmlns="http://www.w3.org/2000/svg">
<g id="Group">
<path id="Vector" d="M0.769531 18.4922H4.56355C6.97182 18.4922 8.52333 20.4662 8.52333 23.1704C8.52333 24.657 8.03179 25.965 7.08636 26.7713C6.41712 27.335 5.54859 27.6561 4.41351 27.6561H0.769531V18.4922ZM4.28719 26.0553C6.00265 26.0553 6.67173 24.992 6.67173 23.1704C6.67173 21.3488 5.89008 20.0811 4.33857 20.0811H2.59937V26.0533H4.28719V26.0553Z" fill="black"/>
<path id="Vector_2" d="M8.7959 24.3788C8.7959 22.4168 10.1699 20.9062 12.1755 20.9062C14.181 20.9062 15.555 22.4188 15.555 24.3788C15.555 26.3387 14.181 27.8514 12.1755 27.8514C10.1699 27.8514 8.7959 26.3387 8.7959 24.3788ZM13.8158 24.3788C13.8158 23.0969 13.2237 22.2262 12.1755 22.2262C11.1273 22.2262 10.5351 23.0969 10.5351 24.3788C10.5351 25.6607 11.1153 26.5193 12.1755 26.5193C13.2354 26.5193 13.8158 25.6607 13.8158 24.3788Z" fill="black"/>
<path id="Vector_3" d="M15.9082 24.3788C15.9082 22.4168 17.1696 20.9062 19.1377 20.9062C20.8157 20.9062 21.85 21.8932 22.0769 23.3156H20.3991C20.2846 22.7377 19.8444 22.3026 19.2127 22.3026C18.1784 22.3026 17.6494 23.1109 17.6494 24.3788C17.6494 25.6466 18.1409 26.4551 19.1871 26.4551C19.8799 26.4551 20.3734 26.0839 20.486 25.3398H22.1381C22.0257 26.736 20.9518 27.8514 19.2246 27.8514C17.1816 27.8514 15.9082 26.3387 15.9082 24.3788Z" fill="black"/>
<path id="Vector_4" d="M26.6742 27.658V26.8896H26.6366C26.1945 27.4914 25.6912 27.8385 24.783 27.8385C23.3461 27.8385 22.5386 26.9038 22.5386 25.4674V21.082H24.2423V25.1704C24.2423 25.9388 24.5838 26.362 25.314 26.362C26.1215 26.362 26.6131 25.7462 26.6131 24.8756V21.082H28.3284V27.658H26.6762H26.6742Z" fill="black"/>
<path id="Vector_5" d="M36.6826 18.5312H38.3979V20.1604H36.6826V18.5312ZM36.6826 21.0811H38.3979V27.6551H36.6826V21.0791V21.0811Z" fill="black"/>
<path id="Vector_6" d="M39.1108 27.8476H40.8144C40.9525 28.2568 41.3197 28.5778 42.1133 28.5778C43.0844 28.5778 43.5503 28.1043 43.5503 27.2056V26.4874H43.5128C43.1339 26.9227 42.6423 27.2558 41.823 27.2558C40.3861 27.2558 38.9727 26.1022 38.9727 24.1163C38.9727 22.1301 40.1333 20.8984 41.7718 20.8984C42.5792 20.8984 43.1713 21.2194 43.5622 21.7691H43.5879V21.077H45.2401V27.1515C45.2401 28.0742 44.95 28.7022 44.4702 29.1516C43.9275 29.6651 43.0964 29.8958 42.1369 29.8958C40.3722 29.8958 39.2865 29.1275 39.1108 27.8456V27.8476ZM43.6391 24.0802C43.6391 23.1192 43.1339 22.2987 42.1014 22.2987C41.2309 22.2987 40.6505 22.9908 40.6505 24.0922C40.6505 25.1935 41.2309 25.8615 42.1133 25.8615C43.197 25.8615 43.6391 25.0531 43.6391 24.0802Z" fill="black"/>
<path id="Vector_7" d="M47.6521 21.9756H47.6896C48.1317 21.2716 48.724 20.8984 49.6063 20.8984C50.9428 20.8984 51.839 21.9236 51.839 23.36V27.653H50.1235V23.6147C50.1235 22.9105 49.7209 22.409 49.0004 22.409C48.2443 22.409 47.6896 23.0249 47.6896 23.9217V27.651H45.9741V21.079H47.6521V21.9756Z" fill="black"/>
<path id="Vector_8" d="M32.7737 22.1356C31.4372 21.8408 30.8056 21.6221 30.8056 20.8798C30.8056 20.2258 31.4491 19.8026 32.432 19.8026C33.3303 19.8026 34.0153 20.2298 34.1573 21.0845H35.9163C35.7366 19.3051 34.4377 18.3281 32.4459 18.3281C30.4541 18.3281 28.9895 19.263 28.9895 21.0704C28.9895 22.9802 30.466 23.4155 32.0787 23.7867C33.4527 24.1076 34.3113 24.2862 34.3113 25.183C34.3113 26.0296 33.4921 26.3625 32.5585 26.3625C31.2714 26.3625 30.6535 25.9271 30.5272 24.8238H28.7368C28.8 26.7597 30.1877 27.8611 32.6334 27.8611C34.6647 27.8611 36.1393 26.8219 36.1393 24.9643C36.1393 22.9903 34.6253 22.5409 32.7717 22.1316L32.7737 22.1356Z" fill="black"/>
<path id="Vector_9" d="M52.536 22.2983C52.159 22.2983 51.853 21.9874 51.853 21.6042C51.853 21.2211 52.159 20.9102 52.536 20.9102C52.913 20.9102 53.219 21.2211 53.219 21.6042C53.219 21.9874 52.913 22.2983 52.536 22.2983ZM52.536 21.0206C52.2182 21.0206 51.9617 21.2833 51.9617 21.6042C51.9617 21.9252 52.2202 22.1881 52.536 22.1881C52.8518 22.1881 53.1105 21.9252 53.1105 21.6042C53.1105 21.2833 52.8518 21.0206 52.536 21.0206Z" fill="black"/>
<path id="Vector_10" d="M52.3008 21.25H52.5238C52.6166 21.25 52.6797 21.25 52.7409 21.3022C52.7843 21.3383 52.8178 21.3945 52.8178 21.4767C52.8178 21.6132 52.7192 21.6592 52.6797 21.6712L52.8357 21.9602H52.6856L52.5475 21.6973H52.431V21.9602H52.3008V21.252V21.25ZM52.431 21.3644V21.5871H52.4764C52.5218 21.5871 52.5375 21.5871 52.5632 21.5851C52.5928 21.5851 52.6856 21.5789 52.6856 21.4747C52.6856 21.4587 52.6856 21.4065 52.6303 21.3784C52.6027 21.3644 52.5691 21.3644 52.4922 21.3644H52.431Z" fill="black"/>
<g id="Group 9407">
<path id="Vector_11" d="M34.5115 0H19.4399V15.3166H34.5115V0Z" fill="#D5FF00"/>
<path id="Vector_12" d="M32.417 11.7031H21.5322V13.1917H32.417V11.7031Z" fill="black"/>
<path id="Vector_13" d="M26.9764 10.8494L28.0129 9.79809L31.1633 6.5944L30.1151 5.53115L27.7088 7.97857V1.91406H26.2421L26.244 7.97857L23.8358 5.53115L22.7896 6.5944L25.94 9.79809L26.9764 10.8494Z" fill="black"/>
</g>
</g>
</svg>
