<svg width="157" height="90" viewBox="0 0 157 90" fill="none" xmlns="http://www.w3.org/2000/svg">
<path d="M106.427 37.7397C106.482 37.6798 106.512 37.6098 106.512 37.5199V36.2755C106.512 36.1606 106.482 36.0806 106.427 36.0257C106.368 35.9657 106.298 35.9407 106.213 35.9407H97.5323V20.674C97.5323 20.5141 97.4773 20.4641 97.4573 20.4441C97.3974 20.3941 97.3274 20.3691 97.2275 20.3691H95.9831C95.8182 20.3691 95.7583 20.4341 95.7383 20.4541C95.6833 20.5141 95.6533 20.584 95.6533 20.674V37.5199C95.6533 37.7497 95.7283 37.8247 95.9582 37.8247H106.208C106.333 37.8247 106.393 37.7747 106.427 37.7397Z" fill="#D96B44"/>
<path d="M111.075 48.5537C110.995 48.4937 110.915 48.4688 110.82 48.4688H98.4367C98.3318 48.4688 98.2569 48.4937 98.1919 48.5537C98.1569 48.5887 98.1069 48.6437 98.1069 48.7736V49.9929C98.1069 50.1278 98.1369 50.2228 98.1919 50.2728C98.2519 50.3277 98.3318 50.3577 98.4367 50.3577H103.704V65.5995C103.704 65.6944 103.734 65.7694 103.799 65.8294C103.869 65.8943 103.944 65.9243 104.029 65.9243H105.248C105.393 65.9243 105.453 65.8743 105.483 65.8343C105.543 65.7644 105.573 65.6894 105.573 65.5945V50.3527H110.815C111.01 50.3527 111.065 50.2828 111.085 50.2628C111.145 50.1878 111.175 50.0979 111.175 49.9929V48.7736C111.16 48.6486 111.105 48.5887 111.065 48.5587L111.075 48.5537Z" fill="#D96B44"/>
<path d="M115.927 37.8197H127.526C127.756 37.8197 127.831 37.7447 127.831 37.5149V36.2705C127.831 36.0157 127.751 35.9307 127.506 35.9307H117.511V29.5442H125.382C125.522 29.5442 125.572 29.4992 125.602 29.4642C125.657 29.3943 125.687 29.3143 125.687 29.2193V27.99C125.687 27.9001 125.677 27.7851 125.617 27.7401C125.552 27.6902 125.477 27.6652 125.387 27.6652H117.516V22.2531H127.461C127.591 22.2531 127.676 22.2231 127.726 22.1682C127.786 22.0982 127.811 22.0133 127.811 21.9133V20.719C127.811 20.4241 127.691 20.3691 127.486 20.3691H115.932C115.737 20.3691 115.627 20.4191 115.627 20.694V37.5398C115.627 37.7247 115.672 37.8197 115.932 37.8197H115.927Z" fill="#D96B44"/>
<path d="M63.0507 48.7735C63.0357 48.7335 63.0158 48.6935 62.9958 48.6435C62.9808 48.6136 62.9608 48.5836 62.9358 48.5586C62.9258 48.5486 62.9008 48.5286 62.8408 48.5036C62.8059 48.4886 62.7459 48.4736 62.636 48.4736H61.8414C61.7115 48.4736 61.6465 48.4936 61.6215 48.5036C61.5615 48.5286 61.5366 48.5486 61.5266 48.5636C61.5016 48.5886 61.4816 48.6186 61.4666 48.6485C61.4466 48.6935 61.4266 48.7385 61.4116 48.7735L54.4504 65.4894C54.4504 65.4894 54.4454 65.5144 54.4354 65.5394C54.4304 65.5594 54.4254 65.5844 54.4254 65.6094C54.4254 65.6443 54.4204 65.6793 54.4204 65.7243C54.4204 65.8043 54.4204 65.9192 54.7452 65.9192H56.0245C56.1345 65.9192 56.2194 65.8942 56.2844 65.8442C56.3594 65.7893 56.4143 65.7143 56.4543 65.6144C56.5642 65.2845 56.7392 64.8198 56.974 64.2401C57.2089 63.6604 57.4638 63.0158 57.7436 62.3011L57.7986 62.1562H66.5738L67.9581 65.6144C67.9981 65.7143 68.053 65.7893 68.128 65.8442C68.193 65.8942 68.2779 65.9192 68.3878 65.9192H69.6672C69.992 65.9192 69.992 65.8043 69.992 65.7243L69.937 65.4444L63.0507 48.7735ZM58.5832 60.2722L62.2362 51.1822L65.8242 60.2722H58.5782H58.5832Z" fill="#D96B44"/>
<path d="M131.064 64.0352H121.07V57.6487H128.94C129.08 57.6487 129.13 57.6037 129.16 57.5687C129.22 57.4938 129.245 57.4188 129.245 57.3238V56.0945C129.245 56.0046 129.235 55.8896 129.175 55.8446C129.11 55.7947 129.035 55.7697 128.945 55.7697H121.075V50.3576H131.019C131.149 50.3576 131.239 50.3276 131.284 50.2727C131.344 50.1977 131.369 50.1177 131.369 50.0178V48.8234C131.369 48.5286 131.249 48.4736 131.044 48.4736H119.49C119.295 48.4736 119.186 48.5236 119.186 48.7985V65.6443C119.186 65.8292 119.231 65.9242 119.49 65.9242H131.089C131.319 65.9242 131.394 65.8492 131.394 65.6194V64.375C131.394 64.1202 131.314 64.0352 131.069 64.0352H131.064Z" fill="#D96B44"/>
<path d="M149.149 58.888C149.609 58.6631 150.034 58.3833 150.414 58.0485C150.788 57.7136 151.118 57.3288 151.388 56.9091C151.658 56.4843 151.868 56.0195 152.018 55.5248C152.168 55.0301 152.243 54.5054 152.243 53.9707C152.243 53.2161 152.103 52.5015 151.818 51.8368C151.538 51.1722 151.148 50.5825 150.653 50.0878C150.164 49.593 149.574 49.1932 148.914 48.9084C148.255 48.6186 147.53 48.4736 146.761 48.4736H139.804C139.609 48.4736 139.5 48.5286 139.5 48.8234V65.6194C139.5 65.8492 139.574 65.9242 139.804 65.9242H141.059C141.334 65.9242 141.384 65.8192 141.384 65.6194V59.4227H145.951C146.181 59.4227 146.366 59.4227 146.506 59.4177C146.771 59.4127 146.901 59.4177 147.02 59.4027L147.185 59.3827L150.149 65.6094C150.279 65.8942 150.424 65.9242 150.524 65.9242H151.983C152.203 65.9242 152.203 65.8542 152.203 65.7793V65.6743L148.939 58.9929L149.144 58.893L149.149 58.888ZM146.811 57.5737H141.384V50.3176H146.761C147.275 50.3176 147.76 50.4176 148.2 50.6225C148.64 50.8224 149.024 51.0922 149.344 51.427C149.664 51.7569 149.919 52.1466 150.104 52.5814C150.289 53.0162 150.379 53.4759 150.379 53.9457C150.379 54.4154 150.289 54.8852 150.109 55.3199C149.929 55.7547 149.679 56.1445 149.364 56.4743C149.049 56.8091 148.665 57.074 148.23 57.2739C147.79 57.4688 147.315 57.5687 146.811 57.5687V57.5737Z" fill="#D96B44"/>
<path d="M39.239 37.5848C40.1035 37.235 40.8731 36.7403 41.5177 36.1206C42.1624 35.496 42.6821 34.7414 43.0519 33.8668C43.4217 32.9923 43.6116 32.0228 43.6116 30.9734V20.674C43.6116 20.584 43.5816 20.5241 43.5117 20.4691C43.4217 20.4041 43.3268 20.3691 43.2268 20.3691H42.0674C41.9675 20.3691 41.8875 20.3991 41.8226 20.4641C41.7576 20.5241 41.7276 20.589 41.7276 20.674V30.6486C41.7276 31.4232 41.6227 32.1628 41.4078 32.8374C41.1929 33.522 40.8681 34.1267 40.4333 34.6364C39.9986 35.1461 39.4439 35.5559 38.7792 35.8508C38.1196 36.1456 37.335 36.2905 36.4555 36.2905C35.6309 36.2905 34.8863 36.1456 34.2417 35.8558C33.597 35.5659 33.0373 35.1611 32.5926 34.6514C32.1428 34.1467 31.803 33.542 31.5731 32.8524C31.3432 32.1728 31.2283 31.4282 31.2283 30.6436V20.669C31.2283 20.619 31.2183 20.549 31.1184 20.4741C31.0334 20.4041 30.9535 20.3691 30.8885 20.3691H29.5992C29.5142 20.3691 29.4593 20.3941 29.4093 20.4591C29.3493 20.5341 29.3193 20.604 29.3193 20.674V30.9734C29.3193 31.9479 29.5092 32.8824 29.879 33.7419C30.2538 34.6064 30.7686 35.371 31.4182 36.0157C32.0678 36.6653 32.8324 37.18 33.692 37.5548C34.5515 37.9246 35.481 38.1145 36.4605 38.1145C37.4399 38.1145 38.3744 37.9396 39.239 37.5898V37.5848Z" fill="#D96B44"/>
<path d="M88.9117 58.0485C89.2864 57.7136 89.6163 57.3288 89.8861 56.9091C90.156 56.4843 90.3659 56.0195 90.5158 55.5248C90.6657 55.0301 90.7407 54.5054 90.7407 53.9707C90.7407 53.2161 90.6007 52.5015 90.3159 51.8368C90.036 51.1722 89.6463 50.5825 89.1515 50.0878C88.6618 49.593 88.0721 49.1932 87.4125 48.9084C86.7528 48.6186 86.0282 48.4736 85.2586 48.4736H78.3024C78.1075 48.4736 77.9976 48.5286 77.9976 48.8234V65.6194C77.9976 65.8492 78.0725 65.9242 78.3024 65.9242H79.5567C79.8316 65.9242 79.8865 65.8192 79.8865 65.6194V59.4227H84.4541C84.6839 59.4227 84.8688 59.4227 85.0088 59.4177C85.2736 59.4127 85.4035 59.4177 85.5235 59.4027L85.6884 59.3827L88.6518 65.6094C88.7817 65.8942 88.9266 65.9242 89.0266 65.9242H90.4858C90.7057 65.9242 90.7057 65.8542 90.7057 65.7793V65.6743L87.4424 58.9929L87.6473 58.893C88.1071 58.6681 88.5319 58.3883 88.9117 58.0534V58.0485ZM86.7328 57.2739C86.2931 57.4688 85.8183 57.5687 85.3136 57.5687H79.8865V50.3126H85.2636C85.7783 50.3126 86.2631 50.4126 86.7028 50.6175C87.1426 50.8174 87.5274 51.0872 87.8472 51.422C88.1671 51.7519 88.4219 52.1416 88.6068 52.5764C88.7917 53.0112 88.8817 53.4709 88.8817 53.9407C88.8817 54.4104 88.7917 54.8802 88.6118 55.3149C88.4319 55.7497 88.182 56.1395 87.8672 56.4693C87.5524 56.8041 87.1676 57.069 86.7328 57.2689V57.2739Z" fill="#D96B44"/>
<path d="M59.2778 31.3132C59.5427 31.3082 59.6726 31.3132 59.7925 31.2982L59.9574 31.2782L62.9208 37.5049C63.0508 37.7897 63.1957 37.8197 63.2956 37.8197H64.7548C64.9747 37.8197 64.9747 37.7497 64.9747 37.6748V37.5698L61.7115 30.8884L61.9164 30.7885C62.3761 30.5636 62.8009 30.2838 63.1807 29.949C63.5555 29.6141 63.8853 29.2343 64.1552 28.8096C64.425 28.3848 64.6349 27.9201 64.7848 27.4253C64.9347 26.9306 65.0097 26.4059 65.0097 25.8712C65.0097 25.1166 64.8698 24.402 64.5849 23.7323C64.3051 23.0677 63.9153 22.478 63.4206 21.9833C62.9258 21.4885 62.3412 21.0888 61.6815 20.8039C61.0219 20.5141 60.2973 20.3691 59.5277 20.3691H52.5714C52.3765 20.3691 52.2666 20.4241 52.2666 20.719V37.5149C52.2666 37.7447 52.3416 37.8197 52.5714 37.8197H53.8258C54.1006 37.8197 54.1506 37.7147 54.1506 37.5149V31.3182H58.7181C58.948 31.3182 59.1329 31.3182 59.2728 31.3132H59.2778ZM54.1556 22.2131H59.5327C60.0474 22.2131 60.5321 22.3131 60.9719 22.518C61.4117 22.7179 61.7964 22.9877 62.1163 23.3225C62.4361 23.6524 62.691 24.0422 62.8759 24.4769C63.0608 24.9117 63.1507 25.3714 63.1507 25.8412C63.1507 26.3109 63.0608 26.7807 62.8809 27.2204C62.701 27.6552 62.4511 28.045 62.1363 28.3748C61.8214 28.7096 61.4366 28.9795 61.0019 29.1744C60.5671 29.3743 60.0874 29.4742 59.5826 29.4742H54.1556V22.2181V22.2131Z" fill="#D96B44"/>
<path d="M14.7422 31.3132C15.007 31.3082 15.1369 31.3032 15.2569 31.2982C16.3913 31.2482 17.1758 30.8884 17.1758 30.8884L17.3807 30.7885C17.8405 30.5636 18.2653 30.2838 18.645 29.949C19.0198 29.6141 19.3497 29.2343 19.6195 28.8096C19.8894 28.3848 20.0993 27.9201 20.2492 27.4253C20.3991 26.9306 20.4741 26.4059 20.4741 25.8712C20.4741 25.1166 20.3341 24.402 20.0493 23.7323C19.7694 23.0677 19.3796 22.478 18.8849 21.9833C18.3902 21.4885 17.8055 21.0888 17.1459 20.8039C16.4862 20.5141 15.7616 20.3691 14.992 20.3691H8.03579C7.8409 20.3691 7.73096 20.4241 7.73096 20.719V37.5149C7.73096 37.7447 7.80592 37.8197 8.03579 37.8197H9.29011C9.56496 37.8197 9.61494 37.7147 9.61494 37.5149V31.3182H14.1825C14.4123 31.3182 14.5972 31.3182 14.7372 31.3132H14.7422ZM9.61993 22.2131H14.997C15.5117 22.2131 15.9965 22.3131 16.4362 22.518C16.876 22.7179 17.2608 22.9877 17.5806 23.3225C17.9004 23.6524 18.1553 24.0422 18.3402 24.4769C18.5251 24.9117 18.6151 25.3714 18.6151 25.8412C18.6151 26.3109 18.5251 26.7807 18.3452 27.2204C18.1653 27.6552 17.9154 28.045 17.6006 28.3748C17.2858 28.7096 16.901 28.9795 16.4662 29.1744C16.0315 29.3743 15.5517 29.4742 15.047 29.4742H9.61993V22.2181V22.2131Z" fill="#D96B44"/>
<path d="M81.4507 31.3132C81.7155 31.3082 81.8454 31.3032 81.9654 31.2982C83.0998 31.2482 83.8843 30.8884 83.8843 30.8884L84.0892 30.7885C84.549 30.5636 84.9738 30.2838 85.3535 29.949C85.7283 29.6141 86.0582 29.2343 86.328 28.8096C86.5979 28.3848 86.8078 27.9201 86.9577 27.4253C87.1076 26.9306 87.1826 26.4059 87.1826 25.8712C87.1826 25.1166 87.0426 24.402 86.7578 23.7323C86.4779 23.0677 86.0881 22.478 85.5934 21.9833C85.0987 21.4885 84.514 21.0888 83.8544 20.8039C83.1947 20.5141 82.4701 20.3691 81.7005 20.3691H74.7443C74.5494 20.3691 74.4395 20.4241 74.4395 20.719V37.5149C74.4395 37.7447 74.5144 37.8197 74.7443 37.8197H75.9986C76.2735 37.8197 76.3234 37.7147 76.3234 37.5149V31.3182H80.891C81.1208 31.3182 81.3057 31.3182 81.4457 31.3132H81.4507ZM76.3284 22.2131H81.7055C82.2202 22.2131 82.705 22.3131 83.1447 22.518C83.5845 22.7179 83.9693 22.9877 84.2891 23.3225C84.6089 23.6524 84.8638 24.0422 85.0487 24.4769C85.2336 24.9117 85.3236 25.3714 85.3236 25.8412C85.3236 26.3109 85.2336 26.7807 85.0537 27.2204C84.8738 27.6552 84.6239 28.045 84.3091 28.3748C83.9943 28.7096 83.6095 28.9795 83.1747 29.1744C82.74 29.3743 82.2602 29.4742 81.7555 29.4742H76.3284V22.2181V22.2131Z" fill="#D96B44"/>
<path d="M46.7844 48.4688H45.6251C45.5251 48.4688 45.4451 48.4987 45.3802 48.5637C45.3152 48.6237 45.2852 48.6886 45.2852 48.7736V58.7482C45.2852 59.5228 45.1803 60.2624 44.9654 60.937C44.7505 61.6216 44.4257 62.2263 43.9909 62.736C43.5562 63.2457 43.0015 63.6555 42.3368 63.9504C41.6772 64.2452 40.8926 64.3901 40.0131 64.3901C39.1885 64.3901 38.4439 64.2452 37.7993 63.9554C37.1546 63.6655 36.5949 63.2607 36.1502 62.751C35.7004 62.2463 35.3606 61.6416 35.1307 60.952C34.9009 60.2724 34.7859 59.5278 34.7859 58.7432V48.7686C34.7859 48.7186 34.7759 48.6487 34.676 48.5737C34.591 48.5037 34.5111 48.4688 34.4461 48.4688H33.1568C33.0718 48.4688 33.0169 48.4937 32.9669 48.5587C32.9069 48.6337 32.877 48.7036 32.877 48.7736V59.073C32.877 60.0475 33.0669 60.982 33.4367 61.8415C33.8114 62.706 34.3262 63.4706 34.9758 64.1153C35.6205 64.7649 36.3901 65.2797 37.2496 65.6544C38.1091 66.0242 39.0386 66.2141 40.0181 66.2141C40.9976 66.2141 41.932 66.0392 42.7966 65.6894C43.6611 65.3396 44.4257 64.8449 45.0753 64.2252C45.72 63.6006 46.2397 62.846 46.6095 61.9714C46.9793 61.1019 47.1692 60.1274 47.1692 59.078V48.7786C47.1692 48.6886 47.1392 48.6287 47.0693 48.5737C46.9793 48.5087 46.8894 48.4737 46.7844 48.4737V48.4688Z" fill="#D96B44"/>
<path d="M21.2933 63.6802L21.3183 63.6502C21.7781 63.1305 22.1728 62.5758 22.4927 61.9961C22.8725 61.3165 23.1723 60.5719 23.3822 59.7923C23.5921 59.0127 23.697 58.1932 23.697 57.3536C23.697 56.4741 23.5821 55.6146 23.3522 54.79C23.1223 53.9705 22.7925 53.1909 22.3827 52.4813C21.968 51.7717 21.4582 51.112 20.8735 50.5323C20.2889 49.9477 19.6292 49.4429 18.9246 49.0282C18.215 48.6134 17.4454 48.2886 16.6358 48.0587C15.0167 47.5989 13.1577 47.5989 11.5286 48.0587C10.714 48.2886 9.93947 48.6184 9.22985 49.0282C8.52023 49.4429 7.87059 49.9477 7.2859 50.5373C6.70122 51.122 6.19649 51.7817 5.78672 52.4863C5.37194 53.1959 5.04712 53.9705 4.82224 54.785C4.59736 55.5996 4.48242 56.4641 4.48242 57.3387C4.48242 58.603 4.7123 59.8123 5.17205 60.9267C5.6268 62.0411 6.26146 63.0356 7.06103 63.8851C7.8556 64.7346 8.80508 65.4343 9.8845 65.964C10.9589 66.4937 12.1383 66.8035 13.3826 66.8885H14.8268C15.6464 66.8285 16.4459 66.6686 17.2055 66.4087C17.2705 66.3838 17.3405 66.3638 17.4054 66.3388C17.4904 66.3088 17.5553 66.2388 17.5803 66.1539C17.6053 66.0689 17.5953 65.979 17.5403 65.904L16.9007 64.9795C16.8307 64.8746 16.6958 64.8346 16.5759 64.8746C15.7713 65.1394 14.9368 65.2744 14.0922 65.2744C12.9928 65.2744 11.9484 65.0645 10.9939 64.6497C10.0344 64.2349 9.18488 63.6652 8.46527 62.9456C7.74565 62.226 7.17596 61.3765 6.76119 60.422C6.34641 59.4625 6.13653 58.4231 6.13653 57.3237C6.13653 56.604 6.23147 55.8944 6.42137 55.2198C6.61127 54.5452 6.88112 53.9055 7.22594 53.3208C7.57075 52.7361 7.98553 52.1914 8.47026 51.7067C8.95 51.222 9.48971 50.8022 10.0744 50.4624C10.6591 50.1176 11.2987 49.8477 11.9784 49.6578C12.653 49.4679 13.3676 49.373 14.0972 49.373C14.8268 49.373 15.5364 49.4679 16.2111 49.6578C16.8857 49.8477 17.5204 50.1176 18.11 50.4624C18.6947 50.8072 19.2394 51.227 19.7242 51.7117C20.2089 52.1964 20.6287 52.7361 20.9735 53.3208C21.3183 53.9055 21.5882 54.5452 21.7781 55.2198C21.968 55.8944 22.0629 56.604 22.0629 57.3237C22.0629 58.4231 21.853 59.4625 21.4382 60.422C21.2533 60.8468 21.0335 61.2565 20.7836 61.6413C20.3738 62.266 19.8391 62.8007 19.2544 63.2654L19.2394 63.2754C19.1645 63.3354 19.1145 63.4204 19.1045 63.5153C19.0945 63.6103 19.1195 63.7052 19.1795 63.7852L23.762 69.622C23.9119 69.8119 24.1868 69.8469 24.3816 69.697L24.9863 69.2222C25.1612 69.0473 25.1762 69.0023 25.1912 68.8574C25.2062 68.7125 25.1662 68.6076 25.0763 68.4526L21.3233 63.6752L21.2933 63.6802Z" fill="#D96B44"/>
<path d="M19.0345 55.6649C18.9596 55.43 18.8646 55.2001 18.7497 54.9802C17.7702 53.1062 15.9212 52.0068 13.9073 52.0068C13.4875 52.0068 13.0628 52.0568 12.633 52.1518C12.1482 52.2667 11.6785 52.4516 11.2487 52.7065C9.12489 53.9708 8.13542 56.3395 8.7301 58.7482C9.29979 61.0619 11.4086 62.701 13.8573 62.736H13.9273C14.372 62.736 14.8218 62.6811 15.2566 62.5661C15.3415 62.5461 15.4065 62.4862 15.4365 62.4062C15.4665 62.3263 15.4565 62.2413 15.4115 62.1713L14.6619 61.0569C14.6069 60.977 14.512 60.937 14.412 60.947C14.0272 60.997 13.6324 60.987 13.2427 60.917C11.7884 60.6522 10.6391 59.4928 10.3792 58.0386C10.1593 56.8192 10.5391 55.6299 11.4086 54.7803C12.0883 54.1207 12.9878 53.7559 13.9423 53.7559C13.9523 53.7559 13.9623 53.7559 13.9773 53.7559C14.9417 53.7659 15.8462 54.1557 16.5159 54.8453C17.1905 55.5349 17.5553 56.4494 17.5403 57.4139C17.5303 58.1035 17.3254 58.7682 16.9506 59.3429C16.8857 59.4428 16.8857 59.5677 16.9506 59.6627L17.6553 60.7071C17.7052 60.7821 17.7852 60.8271 17.8801 60.8321C17.8801 60.8321 17.8901 60.8321 17.8951 60.8321C17.9801 60.8321 18.065 60.7921 18.12 60.7271C19.2644 59.3079 19.6042 57.4639 19.0445 55.6599L19.0345 55.6649Z" fill="#D96B44"/>
<path d="M13.8024 56.2249C13.1678 56.2948 12.713 56.8695 12.783 57.5042C12.8529 58.1388 13.4276 58.5936 14.0623 58.5236C14.6969 58.4537 15.1517 57.879 15.0817 57.2443C15.0118 56.6097 14.4371 56.1549 13.8024 56.2249Z" fill="#D96B44"/>
</svg>
