<svg width="20" height="20" viewBox="0 0 20 20" fill="none" xmlns="http://www.w3.org/2000/svg">
<g id="inbox-02">
<path id="Icon" d="M1.66663 9.99998H4.9016C5.4726 9.99998 5.9946 10.3226 6.24996 10.8333C6.50532 11.344 7.02732 11.6666 7.59832 11.6666H12.4016C12.9726 11.6666 13.4946 11.344 13.75 10.8333C14.0053 10.3226 14.5273 9.99998 15.0983 9.99998H18.3333M1.66663 9.99998V7.33331C1.66663 5.93318 1.66663 5.23312 1.93911 4.69834C2.17879 4.22793 2.56124 3.84548 3.03165 3.6058C3.56643 3.33331 4.26649 3.33331 5.66663 3.33331H14.3333C15.7334 3.33331 16.4335 3.33331 16.9683 3.6058C17.4387 3.84548 17.8211 4.22793 18.0608 4.69834C18.3333 5.23312 18.3333 5.93318 18.3333 7.33331V9.99998M1.66663 9.99998V12.6666C1.66663 14.0668 1.66663 14.7668 1.93911 15.3016C2.17879 15.772 2.56124 16.1545 3.03165 16.3942C3.56643 16.6666 4.26649 16.6666 5.66663 16.6666H14.3333C15.7334 16.6666 16.4335 16.6666 16.9683 16.3942C17.4387 16.1545 17.8211 15.772 18.0608 15.3016C18.3333 14.7668 18.3333 14.0668 18.3333 12.6666V9.99998" stroke="#1D2939" stroke-width="1.66667" stroke-linecap="round" stroke-linejoin="round"/>
</g>
</svg>
