<svg width="33" height="32" viewBox="0 0 33 32" fill="none" xmlns="http://www.w3.org/2000/svg">
<g id="Logo-04 1">
<path id="Vector" d="M29.4062 28.4825C29.5138 28.678 29.5701 28.8086 29.5483 28.9923C29.5264 29.176 29.5105 29.2307 29.2894 29.454L28.5268 30.0539C28.2856 30.2435 27.9367 30.2014 27.7475 29.9596L21.9661 22.5786C21.8904 22.4817 21.8568 22.362 21.872 22.2399C21.8871 22.1185 21.9476 22.009 22.0443 21.934L22.0619 21.9197C22.8043 21.3349 23.4777 20.6575 23.9947 19.8663C24.3142 19.3776 24.5899 18.8628 24.8219 18.3244C25.344 17.1136 25.6088 15.795 25.6088 14.4064C25.6088 13.4956 25.4878 12.6008 25.2507 11.7455C25.0119 10.8895 24.6714 10.0806 24.2368 9.34166C23.803 8.60103 23.2725 7.91517 22.6622 7.30346C22.0527 6.69259 21.3684 6.16177 20.6277 5.72615C19.8879 5.29138 19.0834 4.94929 18.2343 4.71084C17.3852 4.47239 16.489 4.35191 15.5693 4.35191C14.6496 4.35191 13.75 4.47239 12.8959 4.71084C12.0418 4.95014 11.2339 5.29138 10.4949 5.72615C9.75593 6.16092 9.07414 6.69091 8.46884 7.30262C7.8627 7.91517 7.33643 8.60019 6.90179 9.34082C6.468 10.0806 6.12668 10.8895 5.88792 11.7447C5.65001 12.5974 5.52979 13.493 5.52979 14.4056C5.52979 15.795 5.79461 17.1136 6.31667 18.3236C6.8379 19.5352 7.56174 20.6095 8.468 21.5178C9.37342 22.4244 10.4461 23.149 11.6567 23.6723C12.8665 24.1955 14.1822 24.4609 15.5685 24.4609C16.6353 24.4609 17.6904 24.2899 18.7026 23.952C18.8547 23.9014 19.0212 23.9537 19.112 24.0851L19.9207 25.2538C19.9854 25.3465 20.0023 25.461 19.9686 25.5697C19.935 25.6784 19.8535 25.7635 19.7475 25.8031C19.6643 25.8343 19.5802 25.8638 19.4953 25.8924C18.5395 26.2202 17.5289 26.4241 16.4966 26.4991H14.674C13.1019 26.3938 11.6155 26.0011 10.257 25.3338C8.89843 24.6665 7.70129 23.7826 6.69751 22.7075C5.69372 21.6332 4.89255 20.3736 4.31667 18.9639C3.73996 17.5551 3.44824 16.0292 3.44824 14.4292C3.44824 13.3169 3.59284 12.23 3.87783 11.1962C4.16283 10.1649 4.57224 9.18747 5.09683 8.29012C5.6189 7.39614 6.25614 6.5662 6.99091 5.82389C7.72567 5.08242 8.55123 4.44038 9.44404 3.91629C10.3377 3.39221 11.3129 2.9785 12.3427 2.68697C14.3957 2.10727 16.7446 2.10727 18.7875 2.68697C19.8123 2.9785 20.7849 3.39221 21.6778 3.91629C22.5697 4.43953 23.3978 5.07905 24.1376 5.81547C24.8783 6.55272 25.5189 7.38266 26.0418 8.28254C26.5647 9.18241 26.9766 10.1657 27.2675 11.2038C27.5584 12.2427 27.7055 13.333 27.7055 14.4443C27.7055 15.5557 27.5718 16.5407 27.3078 17.5265C27.0439 18.5123 26.6656 19.4492 26.1847 20.312C25.7786 21.0409 25.2809 21.7444 24.7034 22.4016L24.6731 22.437L29.407 28.4808L29.4062 28.4825ZM21.8232 12.3C21.7307 12.0017 21.6105 11.7102 21.4667 11.4338C20.2309 9.06614 17.8955 7.6742 15.3591 7.6742C14.8287 7.6742 14.2906 7.73486 13.7517 7.85956C13.1372 8.00196 12.5504 8.23957 12.0056 8.56396C9.32466 10.1623 8.07624 13.1611 8.82613 16.2036C9.54576 19.1274 12.2065 21.201 15.2961 21.2465H15.3869C15.9485 21.2465 16.5134 21.1748 17.0666 21.0308C17.1725 21.003 17.2549 20.9288 17.2936 20.8269C17.3305 20.7274 17.3179 20.6204 17.2591 20.532L16.3099 19.1215C16.2427 19.0204 16.12 18.9681 15.9939 18.985C15.5079 19.0507 15.0111 19.0381 14.5176 18.9471C12.6832 18.61 11.2297 17.1482 10.9018 15.308C10.626 13.7644 11.101 12.262 12.2032 11.1861C13.0598 10.3494 14.1939 9.89018 15.4012 9.89018C15.4155 9.89018 15.4289 9.89018 15.4432 9.89018C16.6605 9.90619 17.7988 10.3957 18.6479 11.2703C19.497 12.1441 19.9569 13.2976 19.9409 14.5176C19.9291 15.388 19.671 16.2314 19.1935 16.9577C19.1103 17.0841 19.1086 17.2425 19.1876 17.3613L20.0771 18.6833C20.141 18.7785 20.2435 18.8358 20.3579 18.8409C20.3638 18.8409 20.3688 18.8409 20.3738 18.8409C20.484 18.8409 20.5865 18.792 20.6563 18.7052C22.1031 16.9114 22.5277 14.5766 21.8215 12.2991L21.8232 12.3ZM15.2196 13.006C14.4192 13.097 13.8442 13.8208 13.935 14.6229C14.0258 15.4251 14.7479 16.0014 15.5483 15.9104C16.3486 15.8194 16.9237 15.0956 16.8329 14.2935C16.7421 13.4914 16.0199 12.915 15.2196 13.006Z" fill="#DC6803"/>
</g>
</svg>
